<?xml version="1.0" encoding="UTF-8"?>
<svg xmlns="http://www.w3.org/2000/svg" xmlns:xlink="http://www.w3.org/1999/xlink" viewBox="0 0 90 90" width="90px" height="90px">
<g id="surface90096133">
<path style=" stroke:none;fill-rule:nonzero;fill:rgb(18.431373%,64.705884%,38.039216%);fill-opacity:1;" d="M 39 9 C 38.199219 8.988281 37.421875 9.300781 36.851562 9.863281 C 36.28125 10.429688 35.960938 11.195312 35.957031 12 L 18 12 C 16.917969 11.984375 15.910156 12.554688 15.367188 13.488281 C 14.820312 14.421875 14.820312 15.578125 15.367188 16.511719 C 15.910156 17.445312 16.917969 18.015625 18 18 L 72 18 C 73.082031 18.015625 74.089844 17.445312 74.632812 16.511719 C 75.179688 15.578125 75.179688 14.421875 74.632812 13.488281 C 74.089844 12.554688 73.082031 11.984375 72 12 L 54.042969 12 C 54.039062 11.195312 53.71875 10.429688 53.148438 9.863281 C 52.578125 9.300781 51.800781 8.988281 51 9 Z M 18 24 L 18 72 C 18 75.316406 20.683594 78 24 78 L 66 78 C 69.316406 78 72 75.316406 72 72 L 72 24 Z M 18 24 "/>
</g>
</svg>
